<svg width="54" height="54" viewBox="0 0 54 54" version="1.1" xmlns="http://www.w3.org/2000/svg" xmlns:xlink="http://www.w3.org/1999/xlink">
<title>ic_about-me</title>
<desc>Created using Figma</desc>
<g id="Canvas" transform="translate(-4138 -84)">
<g id="ic_about-me">
<g id="Vector">
<use xlink:href="#path0_stroke" transform="translate(4139 117.438)" fill="#45E5A5"/>
</g>
<g id="Vector">
<use xlink:href="#path1_stroke" transform="translate(4151.98 85)" fill="#45E5A5"/>
</g>
</g>
</g>
<defs>
<path id="path0_stroke" d="M -0.985947 19.3949C -1.07821 19.9394 -0.71158 20.4556 -0.167057 20.5479C 0.377467 20.6402 0.893684 20.2735 0.985947 19.729L -0.985947 19.3949ZM 35.7493 0.742875L 35.8562 -0.25139L 35.7493 0.742875ZM 51.016 19.74C 51.1143 20.2834 51.6346 20.6443 52.178 20.546C 52.7215 20.4477 53.0823 19.9274 52.984 19.3839L 51.016 19.74ZM 0.985947 19.729C 2.33586 11.762 4.05894 7.58149 6.39572 5.23547C 8.69796 2.92414 11.7535 2.23225 16.3562 1.73714L 16.1423 -0.251389C 11.5369 0.244007 7.822 0.969538 4.97872 3.82405C 2.16998 6.64389 0.372474 11.3777 -0.985947 19.3949L 0.985947 19.729ZM 16.3562 1.73714C 25.5109 0.750936 26.4872 0.750944 35.6423 1.73714L 35.8562 -0.25139C 26.5943 -1.24619 25.4038 -1.24619 16.1423 -0.251389L 16.3562 1.73714ZM 35.6423 1.73714C 40.3792 2.24665 43.2203 2.46123 45.4272 4.5184C 47.6627 6.60216 49.3877 10.7395 51.016 19.74L 52.984 19.3839C 51.3623 10.4192 49.5662 5.64226 46.7909 3.0554C 43.9872 0.441959 40.3279 0.229594 35.8562 -0.25139L 35.6423 1.73714Z"/>
<path id="path1_stroke" d="M 0.0236485 9.29947L 1.02283 9.33995L 0.0236485 9.29947ZM 22.232 23.0561L 21.384 22.5261L 22.232 23.0561ZM 10.3155 24.7524C 6.72366 24.7524 4.37622 22.7822 2.90569 19.8364C 1.41188 16.8441 0.877993 12.9153 1.02283 9.33995L -0.975532 9.25899C -1.12854 13.036 -0.579034 17.3337 1.11627 20.7297C 2.83484 24.1723 5.78224 26.7524 10.3155 26.7524L 10.3155 24.7524ZM 1.02283 9.33995C 1.16876 5.73762 2.29439 3.77883 4.12244 2.6372C 6.05808 1.42837 8.97508 1 13.0238 1L 13.0238 -1C 8.94753 -1 5.51897 -0.59293 3.06304 0.940828C 0.499512 2.54178 -0.812431 5.23273 -0.975532 9.25899L 1.02283 9.33995ZM 13.0238 1C 16.3156 1 19.2892 1.14178 21.4573 2.40691C 23.4877 3.59166 25.0238 5.91156 25.0238 10.8952L 27.0238 10.8952C 27.0238 5.46713 25.31 2.33941 22.4653 0.679491C 19.7584 -0.900053 16.232 -1 13.0238 -1L 13.0238 1ZM 25.0238 10.8952C 25.0305 14.2464 24.4941 16.5047 23.7579 18.309C 23.0475 20.0768 22.1447 21.3101 21.384 22.5261L 23.08 23.5861C 23.8031 22.4279 24.7962 21.0474 25.6108 19.0617C 26.3995 17.1124 27.0171 14.4774 27.0238 10.8952L 25.0238 10.8952ZM 21.384 22.5261C 21.1113 22.9624 20.5743 23.3702 19.7246 23.7141C 18.8588 24.0682 17.8471 24.2899 16.7077 24.4482C 14.4223 24.7701 11.9435 24.7524 10.3155 24.7524L 10.3155 26.7524C 11.9374 26.7524 14.5549 26.7657 16.9843 26.429C 18.2023 26.2581 19.4525 25.978 20.4749 25.568C 21.5134 25.1477 22.4907 24.529 23.08 23.5861L 21.384 22.5261Z"/>
</defs>
</svg>
