<svg width="56" height="56" viewBox="0 0 56 56" version="1.1" xmlns="http://www.w3.org/2000/svg" xmlns:xlink="http://www.w3.org/1999/xlink">
<title>ic_about-me</title>
<desc>Created using Figma</desc>
<g id="Canvas" transform="translate(-4137 -83)">
<g id="ic_about-me">
<g id="Vector">
<use xlink:href="#path0_stroke" transform="translate(4139 117.438)" fill="#45E5A5"/>
</g>
<g id="Vector">
<use xlink:href="#path1_stroke" transform="translate(4151.98 85)" fill="#45E5A5"/>
</g>
</g>
</g>
<defs>
<path id="path0_stroke" d="M -1.97189 19.2278C -2.15642 20.3169 -1.42316 21.3493 -0.334114 21.5338C 0.754934 21.7184 1.78737 20.9851 1.97189 19.8961L -1.97189 19.2278ZM 35.7493 0.742875L 35.9632 -1.24566L 35.7493 0.742875ZM 50.0319 19.918C 50.2286 21.0049 51.2691 21.7266 52.356 21.53C 53.443 21.3334 54.1647 20.2928 53.9681 19.2059L 50.0319 19.918ZM 1.97189 19.8961C 3.31755 11.9542 5.00342 8.05029 7.10422 5.94118C 9.13594 3.90143 11.8618 3.22637 16.4632 2.7314L 16.0354 -1.24565C 11.4286 -0.750112 7.38402 -0.00776118 4.27022 3.11834C 1.2255 6.17509 -0.609219 11.1855 -1.97189 19.2278L 1.97189 19.8961ZM 16.4632 2.7314C 25.5645 1.7495 26.4336 1.74951 35.5354 2.7314L 35.9632 -1.24566C 26.6478 -2.24475 25.3503 -2.24476 16.0354 -1.24565L 16.4632 2.7314ZM 35.5354 2.7314C 40.4049 3.25518 42.8368 3.47086 44.7454 5.24989C 46.711 7.08211 48.4005 10.8997 50.0319 19.918L 53.9681 19.2059C 52.3495 10.259 50.5179 5.16231 47.4728 2.32391C 44.3706 -0.567677 40.3022 -0.778934 35.9632 -1.24566L 35.5354 2.7314Z"/>
<path id="path1_stroke" d="M 0.0236485 9.29947L 2.02201 9.38042L 0.0236485 9.29947ZM 22.232 23.0561L 20.536 21.9961L 22.232 23.0561ZM 10.3155 23.7524C 7.19437 23.7524 5.14691 22.0871 3.8004 19.3898C 2.40734 16.5992 1.88126 12.855 2.02201 9.38042L -1.97471 9.21852C -2.1318 13.0964 -1.57449 17.5786 0.221556 21.1764C 2.06416 24.8674 5.31153 27.7524 10.3155 27.7524L 10.3155 23.7524ZM 2.02201 9.38042C 2.15935 5.99006 3.19183 4.39736 4.65214 3.48538C 6.32763 2.43902 8.98885 2 13.0238 2L 13.0238 -2C 8.93376 -2 5.24941 -1.60358 2.53333 0.0926437C -0.397927 1.92325 -1.80302 4.98029 -1.97471 9.21852L 2.02201 9.38042ZM 13.0238 2C 16.3574 2 19.0546 2.16269 20.9533 3.27061C 22.5765 4.21778 24.0238 6.13377 24.0238 10.8952L 28.0238 10.8952C 28.0238 5.24492 26.2211 1.71329 22.9693 -0.184217C 19.993 -1.92097 16.1902 -2 13.0238 -2L 13.0238 2ZM 24.0238 10.8952C 24.0372 14.1308 23.5414 16.2008 22.8314 17.9326C 22.1732 19.5915 21.3155 20.7512 20.536 21.9961L 23.928 24.1161C 24.6324 22.9868 25.6706 21.5327 26.5373 19.4381C 27.3522 17.4163 28.0104 14.593 28.0238 10.8952L 24.0238 10.8952ZM 20.536 21.9961C 20.4216 22.179 20.1047 22.4815 19.3495 22.7871C 18.562 23.1133 17.6695 23.3057 16.5693 23.4578C 14.356 23.7723 11.9466 23.7524 10.3155 23.7524L 10.3155 27.7524C 11.9344 27.7524 14.6212 27.7635 17.1227 27.4194C 18.3798 27.2422 19.7494 26.933 20.8501 26.495C 21.983 26.0365 23.1803 25.3123 23.928 24.1161L 20.536 21.9961Z"/>
</defs>
</svg>
