<svg width="54" height="54" viewBox="0 0 54 54" version="1.1" xmlns="http://www.w3.org/2000/svg" xmlns:xlink="http://www.w3.org/1999/xlink">
<title>ic_portfolio</title>
<desc>Created using Figma</desc>
<g id="Canvas" transform="translate(-4211 -84)">
<g id="ic_portfolio">
<g id="Vector">
<use xlink:href="#path0_stroke" transform="translate(4212 99)" fill="#45E5A5"/>
</g>
<g id="Vector">
<use xlink:href="#path0_stroke" transform="matrix(1 0 0 -1 4212 137)" fill="#45E5A5"/>
</g>
<g id="Vector">
<use xlink:href="#path0_stroke" transform="matrix(-1 0 0 -1 4264 137)" fill="#45E5A5"/>
</g>
<g id="Vector">
<use xlink:href="#path0_stroke" transform="matrix(-1 0 0 1 4264 99)" fill="#45E5A5"/>
</g>
<g id="Vector">
<use xlink:href="#path1_stroke" transform="matrix(0.999728 0.0233039 -0.0202698 0.999795 4228.18 85)" fill="#45E5A5"/>
</g>
</g>
</g>
<defs>
<path id="path0_stroke" d="M 22 16L 22 17C 22.5523 17 23 16.5523 23 16L 22 16ZM 0.0379272 16L -0.962073 16C -0.962073 16.5523 -0.514358 17 0.0379272 17L 0.0379272 16ZM 22 0L 23 0C 23 -0.552285 22.5523 -1 22 -1L 22 0ZM 22 15C 16.7997 15 8.92734 15 0.0379272 15L 0.0379272 17C 8.92734 17 16.7997 17 22 17L 22 15ZM 1.03793 16C 1.03781 13.7317 0.972576 11.6159 1.01324 9.71949C 1.05293 7.82911 1.18412 6.2428 1.58528 4.90423C 1.96553 3.5889 2.48125 2.71497 3.47435 2.05546C 4.40289 1.41389 5.7809 1 7.88153 1L 7.88153 -1C 5.53763 -1 3.71293 -0.540346 2.33745 0.410022C 1.02653 1.34245 0.136916 2.77884 -0.332612 4.33706C -0.781215 5.87204 -0.944229 7.7225 -0.986306 9.67696C -1.0274 11.6254 -0.961955 13.7625 -0.962073 16L 1.03793 16ZM 23 16L 23 0L 21 0L 21 16L 23 16ZM 7.88153 1L 22 1L 22 -1L 7.88153 -1L 7.88153 1Z"/>
<path id="path1_stroke" d="M 10.1825 0.0829741L 10.2076 1.08266L 10.1825 0.0829741ZM 20.9998 9.48724C 20.9529 6.99819 20.9422 5.10248 20.7938 3.68157C 20.6453 2.27204 20.3405 1.06867 19.4837 0.238046C 18.625 -0.594415 17.4128 -0.858386 15.9942 -0.952792C 14.5666 -1.04649 12.6633 -0.979587 10.1574 -0.916711L 10.2076 1.08266C 12.7242 1.01949 14.5359 0.953273 15.8614 1.04279C 17.196 1.13161 17.7751 1.3672 18.0916 1.67404C 18.4101 1.98273 18.6644 2.55841 18.8048 3.89108C 18.9453 5.21238 18.9531 7.02202 19.0002 9.52489L 20.9998 9.48724ZM 10.1574 -0.916711C 7.62276 -0.852826 5.60075 -0.705463 4.06371 -0.393146C 2.50069 -0.0733577 1.25344 0.450125 0.382554 1.3794C -0.501312 2.32251 -0.865529 3.54088 -0.967697 4.95704C -1.06364 6.3286 -0.923097 8.05299 -0.673038 10.1202L 1.31247 9.87983C 1.06657 7.84992 0.936332 6.31766 1.02712 5.10096C 1.11168 3.92887 1.39169 3.22738 1.84186 2.74703C 2.30502 2.25282 3.08163 1.84921 4.4646 1.56626C 5.87355 1.27584 7.71966 1.14483 10.2076 1.08266L 10.1574 -0.916711Z"/>
</defs>
</svg>
