<svg width="324" height="68" viewBox="0 0 324 68" version="1.1" xmlns="http://www.w3.org/2000/svg" xmlns:xlink="http://www.w3.org/1999/xlink">
<title>nav_logo</title>
<desc>Created using Figma</desc>
<g id="Canvas" transform="translate(-1604 493)">
<g id="nav_logo">
<use xlink:href="#path0_fill" transform="translate(1604.86 -492.376)"/>
<use xlink:href="#path1_fill" transform="translate(1604.86 -492.376)"/>
<use xlink:href="#path2_fill" transform="translate(1604.86 -492.376)"/>
<use xlink:href="#path3_fill" transform="translate(1604.86 -492.376)"/>
<use xlink:href="#path4_fill" transform="translate(1604.86 -492.376)"/>
<use xlink:href="#path5_fill" transform="translate(1604.86 -492.376)"/>
<use xlink:href="#path6_fill" transform="translate(1604.86 -492.376)"/>
<use xlink:href="#path7_fill" transform="translate(1604.86 -492.376)"/>
</g>
</g>
<defs>
<path id="path0_fill" d="M 0.672 28.896C 0.608 28.832 0.48 28.736 0.288 28.608C 0.0959997 28.416 0 28.096 0 27.648C 0.384 25.344 0.704 21.824 0.96 17.088C 1.088 14.336 1.248 12.192 1.44 10.656C 1.632 9.12 1.952 7.904 2.4 7.008C 2.976 7.328 3.328 7.776 3.456 8.352C 3.584 8.864 3.648 9.536 3.648 10.368C 3.648 11.136 3.552 11.968 3.36 12.864C 3.296 13.184 3.232 13.664 3.168 14.304C 3.104 14.88 3.072 15.392 3.072 15.84C 3.072 16.16 3.136 16.544 3.264 16.992C 3.456 17.44 3.584 17.728 3.648 17.856C 3.648 18.112 3.552 18.88 3.36 20.16C 3.168 21.376 3.072 23.296 3.072 25.92C 3.072 26.24 3.104 26.592 3.168 26.976C 3.296 27.296 3.424 27.52 3.552 27.648L 6.528 27.648L 7.2 26.4L 6.816 23.424C 6.176 19.328 5.856 16.224 5.856 14.112C 5.856 13.024 5.952 12.064 6.144 11.232C 6.4 10.4 6.528 9.76 6.528 9.312C 6.528 9.12 6.432 8.896 6.24 8.64C 6.112 8.32 5.984 8.128 5.856 8.064C 6.304 7.936 6.944 7.616 7.776 7.104C 8.608 6.592 9.152 6.272 9.408 6.144C 9.408 6.784 9.632 7.232 10.08 7.488C 10.976 7.488 12.064 7.424 13.344 7.296C 14.688 7.168 15.776 7.072 16.608 7.008C 16.864 6.88 17.088 6.752 17.28 6.624C 17.472 6.496 17.632 6.4 17.76 6.336C 17.696 6.4 17.664 6.496 17.664 6.624C 17.664 7.2 18.336 7.616 19.68 7.872C 21.088 8.064 22.368 8.16 23.52 8.16C 23.84 8.16 24.64 7.936 25.92 7.488C 27.264 6.976 27.936 6.592 27.936 6.336L 27.936 5.76L 25.632 5.568L 10.656 5.568L 10.656 5.376C 10.208 5.376 9.472 5.44 8.448 5.568C 7.424 5.696 6.56 5.76 5.856 5.76C 5.536 5.696 4.832 5.6 3.744 5.472C 2.72 5.344 2.08 5.248 1.824 5.184C 1.824 4.672 1.984 4.16 2.304 3.648C 2.624 3.136 2.88 2.88 3.072 2.88C 3.328 2.944 3.68 3.04 4.128 3.168C 4.64 3.232 5.088 3.296 5.472 3.36C 6.176 3.36 7.424 3.168 9.216 2.784C 11.008 2.4 12.384 2.208 13.344 2.208C 13.408 2.208 13.696 2.336 14.208 2.592C 14.72 2.784 15.136 2.88 15.456 2.88C 15.584 2.816 15.776 2.72 16.032 2.592C 16.288 2.4 16.48 2.272 16.608 2.208C 16.992 2.272 17.408 2.4 17.856 2.592C 18.368 2.72 18.752 2.816 19.008 2.88C 19.52 2.816 20.064 2.72 20.64 2.592C 21.216 2.4 21.632 2.272 21.888 2.208C 23.424 2.208 25.408 2.432 27.84 2.88C 30.272 3.328 32.064 3.904 33.216 4.608C 34.56 5.376 35.744 6.848 36.768 9.024C 37.856 11.2 38.72 13.536 39.36 16.032C 40 18.528 40.32 20.608 40.32 22.272C 40.32 23.744 39.904 25.312 39.072 26.976C 38.304 28.576 37.312 30.368 36.096 32.352C 36.672 32.992 37.472 33.76 38.496 34.656C 40.096 36 41.28 37.344 42.048 38.688C 42.816 39.968 43.2 41.92 43.2 44.544C 43.2 44.864 43.328 45.344 43.584 45.984C 43.84 46.56 43.968 47.264 43.968 48.096C 43.968 51.68 43.04 54.656 41.184 57.024C 39.392 59.328 37.088 61.568 34.272 63.744C 33.376 64.384 32.832 64.8 32.64 64.992C 32.128 65.568 30.688 65.856 28.32 65.856L 26.304 65.856C 26.112 65.856 25.504 65.984 24.48 66.24C 23.52 66.56 21.696 66.72 19.008 66.72L 17.76 66.144C 16.224 66.144 13.984 66.272 11.04 66.528C 10.272 66.592 9.344 66.656 8.256 66.72C 7.168 66.784 5.888 66.816 4.416 66.816L 1.824 66.72L 0.672 65.568L 0.672 28.896ZM 28.224 7.392C 27.392 7.392 26.72 7.584 26.208 7.968C 25.696 8.352 25.44 8.96 25.44 9.792C 26.272 9.792 27.008 9.6 27.648 9.216C 28.288 8.832 28.736 8.256 28.992 7.488L 28.224 7.392ZM 30.816 7.392C 30.176 7.392 29.6 7.744 29.088 8.448C 28.64 9.152 28.416 9.856 28.416 10.56C 29.312 10.56 30.336 10.496 31.488 10.368C 32.64 10.24 33.216 10.016 33.216 9.696C 33.216 9.12 32.928 8.608 32.352 8.16C 31.776 7.648 31.264 7.392 30.816 7.392ZM 9.6 26.4C 10.176 27.04 10.752 27.456 11.328 27.648C 11.968 27.776 12.896 27.84 14.112 27.84C 14.304 27.84 15.872 27.872 18.816 27.936C 21.76 28 24.608 27.52 27.36 26.496C 30.112 25.408 31.488 23.84 31.488 21.792L 30.816 20.544C 30.88 20.416 30.976 20.224 31.104 19.968C 31.296 19.712 31.424 19.52 31.488 19.392C 31.488 17.92 30.656 15.936 28.992 13.44C 28.288 12.416 27.008 11.744 25.152 11.424C 23.296 11.104 20.768 10.88 17.568 10.752C 15.072 10.624 13.248 10.496 12.096 10.368C 11.008 10.176 10.336 9.824 10.08 9.312C 9.568 9.824 9.216 10.368 9.024 10.944C 8.896 11.52 8.832 12.224 8.832 13.056C 8.832 14.656 8.96 16.928 9.216 19.872C 9.472 22.816 9.6 24.992 9.6 26.4ZM 30.24 11.712C 30.432 11.84 30.656 11.968 30.912 12.096C 31.168 12.224 31.392 12.288 31.584 12.288C 31.968 12.288 32.704 11.904 33.792 11.136L 32.64 11.04L 32.064 11.04C 31.296 11.04 30.688 11.264 30.24 11.712ZM 33.792 24.096C 33.856 24.544 34.208 24.768 34.848 24.768C 36.384 24.768 37.312 24.608 37.632 24.288C 37.952 23.968 38.08 23.456 38.016 22.752C 38.016 22.048 38.016 21.536 38.016 21.216C 38.016 19.488 37.728 17.472 37.152 15.168C 36.576 12.864 35.68 11.712 34.464 11.712C 33.824 11.712 33.184 12.064 32.544 12.768C 31.968 13.408 31.68 14.048 31.68 14.688C 32.384 14.688 33.312 14.848 34.464 15.168L 33.792 15.84L 34.464 15.936C 34.784 15.936 35.008 15.904 35.136 15.84C 35.328 15.712 35.52 15.488 35.712 15.168C 35.712 15.744 35.392 16.416 34.752 17.184C 34.496 17.504 34.272 17.856 34.08 18.24C 33.888 18.56 33.792 18.944 33.792 19.392C 33.792 19.584 34.048 19.808 34.56 20.064C 35.136 20.32 35.52 20.48 35.712 20.544C 34.88 20.864 34.24 21.28 33.792 21.792C 34.304 21.792 34.816 21.696 35.328 21.504C 35.904 21.312 36.384 21.216 36.768 21.216L 33.792 24.096ZM 32.64 27.072C 33.536 26.624 34.144 26.24 34.464 25.92L 32.64 25.92L 32.64 27.072ZM 31.488 29.568C 32.448 29.568 33.472 29.344 34.56 28.896C 35.648 28.384 36.192 27.68 36.192 26.784L 36.096 26.4L 31.488 28.896L 31.488 29.568ZM 3.456 60.384C 3.456 62.176 3.68 63.296 4.128 63.744L 7.776 63.264L 7.776 62.592L 6.048 62.592C 6.048 62.208 6.24 61.76 6.624 61.248C 7.008 60.672 7.2 60.256 7.2 60C 7.2 59.36 6.944 58.816 6.432 58.368C 5.984 57.92 5.44 57.568 4.8 57.312C 5.056 57.248 5.28 57.024 5.472 56.64C 5.728 56.256 5.888 56 5.952 55.872C 5.952 55.68 5.792 55.392 5.472 55.008C 5.216 54.624 4.992 54.4 4.8 54.336L 6.048 54.336C 6.048 53.696 5.952 52.992 5.76 52.224C 5.696 51.968 5.632 51.68 5.568 51.36C 5.504 51.04 5.472 50.656 5.472 50.208C 5.472 50.08 5.536 49.888 5.664 49.632C 5.856 49.376 5.952 48.864 5.952 48.096C 5.952 47.584 5.888 47.072 5.76 46.56C 5.632 46.048 5.568 45.568 5.568 45.12C 5.632 45.12 5.696 45.184 5.76 45.312C 5.824 45.376 5.856 45.408 5.856 45.408C 6.048 45.28 6.208 45.12 6.336 44.928C 6.464 44.672 6.528 44.448 6.528 44.256L 6.528 36.48C 7.488 35.904 8.608 35.136 9.888 34.176C 11.232 33.152 12.288 32.16 13.056 31.2L 11.904 30.048C 11.264 29.728 9.92 29.44 7.872 29.184C 5.824 28.864 4.16 28.704 2.88 28.704L 2.784 28.896C 2.784 29.024 2.912 29.312 3.168 29.76C 3.424 30.144 3.552 30.432 3.552 30.624C 3.552 31.264 3.488 32.096 3.36 33.12C 3.104 34.4 2.976 35.872 2.976 37.536C 2.976 38.624 3.008 39.552 3.072 40.32C 3.136 41.088 3.2 41.728 3.264 42.24C 3.52 44.288 3.648 45.888 3.648 47.04C 3.648 47.936 3.616 48.608 3.552 49.056L 4.128 49.536C 3.68 49.664 3.456 50.24 3.456 51.264C 3.456 51.968 3.584 52.768 3.84 53.664C 3.84 53.856 3.872 54.144 3.936 54.528C 4.064 54.848 4.128 55.2 4.128 55.584C 4.128 56.032 4 56.672 3.744 57.504C 3.552 58.272 3.456 59.232 3.456 60.384ZM 22.56 30.624C 20.384 30.624 17.856 30.976 14.976 31.68C 12.096 32.32 10.656 33.76 10.656 36C 14.88 34.208 17.664 32.832 19.008 31.872L 16.032 34.848L 16.032 35.52C 16.928 35.52 17.568 35.392 17.952 35.136C 18.336 34.88 18.72 34.496 19.104 33.984C 19.488 33.408 20.032 32.864 20.736 32.352C 21.12 32.096 21.792 31.904 22.752 31.776C 23.52 31.712 24.16 31.584 24.672 31.392C 25.248 31.136 25.728 30.688 26.112 30.048C 26.112 29.984 26.048 29.888 25.92 29.76C 25.792 29.632 25.696 29.536 25.632 29.472C 25.312 29.472 24.736 29.632 23.904 29.952C 23.072 30.208 22.624 30.432 22.56 30.624ZM 28.992 29.472C 28.608 29.472 27.52 30.048 25.728 31.2C 23.936 32.352 22.272 33.568 20.736 34.848L 22.272 34.944C 23.36 34.944 24.224 34.72 24.864 34.272C 25.568 33.824 26.176 33.024 26.688 31.872C 26.688 32.32 26.56 32.832 26.304 33.408C 26.048 33.92 25.92 34.272 25.92 34.464C 26.944 34.464 28.224 34.048 29.76 33.216C 31.296 32.384 32.064 31.616 32.064 30.912C 32.064 30.784 31.616 30.528 30.72 30.144C 29.824 29.696 29.248 29.472 28.992 29.472ZM 14.88 61.44C 14.56 61.44 13.6 61.664 12 62.112C 10.4 62.496 9.6 62.88 9.6 63.264L 9.6 64.032C 10.304 64.032 11.2 63.808 12.288 63.36C 13.376 62.848 14.048 62.592 14.304 62.592C 14.56 62.656 14.944 62.784 15.456 62.976C 15.968 63.104 16.352 63.2 16.608 63.264L 16.992 63.264C 17.12 63.264 17.376 63.04 17.76 62.592C 18.144 62.144 18.368 61.76 18.432 61.44C 18.496 61.632 18.624 62.08 18.816 62.784C 19.008 63.424 19.264 63.744 19.584 63.744L 24.288 63.744L 24.864 64.416L 25.632 63.264C 26.016 63.328 26.528 63.36 27.168 63.36C 27.744 63.36 28.352 63.168 28.992 62.784C 29.632 62.4 30.048 62.176 30.24 62.112C 32.992 61.28 35.136 60.416 36.672 59.52C 38.272 58.56 39.488 57.28 40.32 55.68C 41.152 54.016 41.568 51.808 41.568 49.056C 41.568 48.096 41.12 45.856 40.224 42.336C 39.392 38.752 38.656 36.8 38.016 36.48C 37.76 36.416 37.376 36.352 36.864 36.288C 36.416 36.16 36.032 36.064 35.712 36C 35.328 35.872 34.912 35.68 34.464 35.424C 34.08 35.168 33.664 35.008 33.216 34.944C 32.768 34.816 32 34.752 30.912 34.752C 30.08 34.752 29.664 34.976 29.664 35.424C 30.432 35.936 31.808 36.288 33.792 36.48C 33.728 36.544 33.696 36.64 33.696 36.768C 33.696 37.216 34.176 37.856 35.136 38.688C 36.16 39.456 36.704 39.936 36.768 40.128C 36.96 40.448 37.248 41.152 37.632 42.24C 38.08 43.328 38.4 44 38.592 44.256C 38.208 44.512 37.888 44.8 37.632 45.12C 37.376 45.44 37.248 45.696 37.248 45.888C 37.44 45.888 37.696 45.952 38.016 46.08C 38.4 46.208 38.592 46.368 38.592 46.56C 38.592 46.88 38.432 47.456 38.112 48.288C 37.856 49.056 37.632 49.472 37.44 49.536L 38.016 50.208L 40.32 49.056C 40.32 49.504 40.064 49.888 39.552 50.208C 39.04 50.528 38.624 50.88 38.304 51.264C 38.048 51.584 37.92 52.224 37.92 53.184L 38.016 54.912C 38.016 54.848 38.144 54.752 38.4 54.624C 38.656 54.432 38.88 54.336 39.072 54.336C 39.2 54.336 39.36 54.4 39.552 54.528C 39.744 54.656 39.84 54.784 39.84 54.912C 39.2 55.424 38.016 55.68 36.288 55.68C 36.288 56.32 36.096 57.088 35.712 57.984C 34.24 58.624 32.576 59.2 30.72 59.712C 28.864 60.16 27.232 60.384 25.824 60.384C 24.8 60.384 24.224 60.256 24.096 60C 24.032 59.744 23.936 59.616 23.808 59.616C 23.36 59.68 22.88 59.808 22.368 60C 21.92 60.128 21.632 60.224 21.504 60.288C 19.968 60.416 17.76 60.48 14.88 60.48L 14.88 61.44ZM 11.904 57.216C 13.312 57.216 15.424 57.344 18.24 57.6C 21.056 57.856 23.168 57.984 24.576 57.984C 26.688 57.984 28.736 57.728 30.72 57.216C 32.768 56.64 34.016 55.488 34.464 53.76C 34.72 52.352 34.88 51.104 34.944 50.016C 35.008 48.928 35.04 47.712 35.04 46.368C 35.04 43.744 34.496 41.824 33.408 40.608C 32.384 39.328 31.072 38.528 29.472 38.208C 27.936 37.888 25.984 37.728 23.616 37.728C 20.736 37.728 18.208 37.856 16.032 38.112C 13.856 38.304 11.712 38.784 9.6 39.552C 9.088 39.68 8.736 41.12 8.544 43.872C 8.352 46.624 8.256 49.28 8.256 51.84C 8.256 52.992 8.352 53.984 8.544 54.816C 8.736 55.648 9.088 56.48 9.6 57.312L 11.904 57.216ZM 8.928 61.44C 9.376 61.44 10.176 61.248 11.328 60.864L 8.928 60.864L 8.928 61.44Z"/>
<path id="path1_fill" d="M 53.5597 44.352C 53.5597 41.152 54.1358 37.632 55.2878 33.792C 56.4398 29.952 57.8478 26.656 59.5118 23.904L 59.7038 24C 60.0878 24 60.8877 23.584 62.1037 22.752C 63.2557 21.984 63.9917 21.6 64.3117 21.6C 64.7597 21.472 65.9117 21.184 67.7677 20.736C 69.6877 20.288 71.4797 20.064 73.1437 20.064L 73.1437 20.928C 74.0397 20.608 74.8397 20.416 75.5437 20.352C 76.3117 20.288 77.0797 20.256 77.8477 20.256C 79.8317 20.256 81.7517 20.448 83.6077 20.832C 85.5278 21.216 86.4877 21.888 86.4877 22.848C 88.0877 22.848 89.3357 23.424 90.2318 24.576C 91.1917 25.664 92.1197 27.168 93.0157 29.088C 93.3357 29.792 93.6557 30.432 93.9757 31.008C 94.3597 31.584 94.7117 31.968 95.0317 32.16L 95.0317 40.416L 93.3037 41.664L 93.7837 42.24C 92.0557 43.584 88.2797 44.256 82.4557 44.256L 77.4637 44.256C 74.2637 44.256 72.1517 44.224 71.1277 44.16C 70.1677 44.096 68.2477 43.84 65.3677 43.392C 65.3037 43.008 65.1117 42.816 64.7917 42.816C 64.6637 42.816 64.5037 42.848 64.3117 42.912C 64.1197 42.976 63.9278 43.008 63.7358 43.008C 63.7358 44.864 63.9597 46.912 64.4077 49.152C 64.9197 51.392 65.6557 53.024 66.6157 54.048C 67.1277 54.624 68.5357 55.328 70.8397 56.16C 71.9917 56.544 72.7597 56.832 73.1437 57.024C 74.2957 57.856 75.2877 58.272 76.1197 58.272C 77.5917 58.272 79.1917 58.08 80.9197 57.696C 82.6477 57.312 83.6397 57.088 83.8957 57.024C 86.9677 56.192 89.4318 55.776 91.2878 55.776C 92.1198 55.776 92.6637 56.16 92.9197 56.928C 93.2397 57.632 93.3997 58.56 93.3997 59.712C 93.3997 60.928 93.3037 61.696 93.1117 62.016C 92.9197 62.336 92.5677 62.56 92.0557 62.688C 91.5437 62.752 91.1277 63.008 90.8077 63.456C 90.4237 63.584 86.6797 64.224 79.5757 65.376C 76.8877 65.376 74.4877 65.312 72.3757 65.184C 70.3277 65.056 68.4077 64.704 66.6157 64.128C 64.6317 63.488 62.6158 61.984 60.5678 59.616C 58.5838 57.248 56.9198 54.624 55.5758 51.744C 54.2318 48.864 53.5597 46.4 53.5597 44.352ZM 83.8957 26.016C 83.8957 26.528 84.4717 27.296 85.6237 28.32C 86.7757 29.344 87.5438 29.856 87.9277 29.856C 88.3118 29.856 88.8237 29.728 89.4637 29.472C 90.1037 29.216 90.4238 28.928 90.4238 28.608C 90.4238 28.224 90.2957 27.68 90.0397 26.976C 89.7837 26.208 89.6557 25.76 89.6557 25.632C 89.6557 25.824 89.4958 25.984 89.1758 26.112C 88.9198 26.176 88.6957 26.208 88.5037 26.208C 87.9917 26.144 87.3837 25.888 86.6797 25.44C 86.0397 24.992 85.7197 24.48 85.7197 23.904C 83.8637 23.904 82.9357 23.456 82.9357 22.56C 82.8077 22.56 82.5517 22.784 82.1677 23.232C 81.7837 23.68 81.0797 23.904 80.0557 23.904C 79.7357 23.904 79.4157 23.776 79.0957 23.52C 78.7757 23.264 78.3597 23.136 77.8477 23.136L 76.5997 23.232C 76.7277 23.296 77.0157 23.712 77.4637 24.48C 77.9757 25.248 78.3917 25.664 78.7117 25.728C 78.8397 25.728 79.0637 25.632 79.3837 25.44C 79.7677 25.184 80.0878 25.056 80.3438 25.056C 80.5998 25.12 81.0797 25.312 81.7837 25.632C 82.4877 25.888 83.1917 26.016 83.8957 26.016ZM 58.0718 45.888C 58.6478 45.888 59.2237 45.76 59.7997 45.504C 60.4397 45.184 60.7598 44.768 60.7598 44.256C 60.7598 44.128 60.6638 43.936 60.4718 43.68C 60.2798 43.36 60.1838 43.072 60.1838 42.816C 60.3117 42.368 60.5358 41.824 60.8558 41.184C 61.1758 40.48 61.3358 39.776 61.3358 39.072C 61.3358 38.56 61.2077 38.208 60.9517 38.016C 60.7597 37.76 60.4397 37.536 59.9917 37.344C 59.6077 37.152 59.4158 36.928 59.4158 36.672C 59.4158 36.416 59.6077 35.84 59.9917 34.944C 60.4397 33.984 60.6638 33.344 60.6638 33.024C 60.6638 32.384 61.2718 31.328 62.4878 29.856C 63.1918 28.896 63.7358 28.128 64.1198 27.552C 64.5038 26.976 64.6957 26.4 64.6957 25.824C 64.9517 25.824 65.3037 25.888 65.7517 26.016C 66.1997 26.144 66.6477 26.208 67.0957 26.208C 67.2877 26.208 67.4157 26.048 67.4797 25.728C 67.5437 25.344 67.6397 25.12 67.7677 25.056C 68.2797 24.864 69.3037 24.768 70.8397 24.768C 72.3117 24.704 73.4317 24.64 74.1997 24.576C 74.9677 24.448 75.3837 24.224 75.4477 23.904C 74.7437 23.584 74.0717 23.392 73.4317 23.328C 72.7917 23.2 71.9597 23.136 70.9357 23.136C 66.5837 23.136 63.2557 24.608 60.9517 27.552C 58.7117 30.496 57.5918 34.208 57.5918 38.688L 60.6638 38.688L 60.6638 39.264L 57.1118 42.816L 57.1118 44.64L 58.2638 43.968L 57.1118 45.792L 58.0718 45.888ZM 63.6398 34.656C 63.9598 35.296 65.8157 35.744 69.2077 36C 72.6637 36.192 75.5437 36.288 77.8477 36.288C 78.9997 36.288 80.5357 36.16 82.4557 35.904C 84.2477 35.648 85.7198 35.52 86.8717 35.52C 86.8717 35.2 86.6477 34.56 86.1997 33.6C 85.7517 32.576 85.3997 32.064 85.1437 32.064L 84.9517 32.16C 84.5037 30.816 83.0637 29.696 80.6317 28.8C 78.2637 27.904 76.2478 27.456 74.5837 27.456C 72.0237 27.456 69.7837 28.064 67.8637 29.28C 65.9437 30.496 64.5358 32.288 63.6398 34.656ZM 90.4238 36.672C 90.4238 37.632 90.1037 38.272 89.4637 38.592C 88.8237 38.848 87.8957 38.976 86.6797 38.976C 85.6557 39.04 84.8877 39.168 84.3757 39.36C 83.8638 39.552 83.6077 39.968 83.6077 40.608C 85.7198 40.608 87.3837 40.544 88.5997 40.416C 89.8157 40.288 90.5517 39.904 90.8077 39.264C 91.1277 39.776 91.5758 40.032 92.1517 40.032C 92.1517 39.52 92.0237 38.976 91.7677 38.4C 91.5757 37.76 91.4797 37.28 91.4797 36.96C 91.4797 36.704 91.6077 36.48 91.8637 36.288C 92.1837 36.096 92.4077 35.872 92.5357 35.616C 92.7277 35.36 92.8237 34.848 92.8237 34.08C 92.8237 31.584 92.0877 30.336 90.6157 30.336C 89.9757 30.336 89.5597 30.528 89.3677 30.912C 89.2397 31.232 89.1758 31.872 89.1758 32.832C 89.8798 34.944 90.2957 36.096 90.4238 36.288L 90.4238 36.672ZM 64.4077 37.824C 63.8317 37.824 63.3198 38.048 62.8718 38.496C 62.4878 38.944 62.2957 39.456 62.2957 40.032C 63.1277 40.032 63.6718 39.872 63.9278 39.552C 64.2478 39.232 64.4077 38.656 64.4077 37.824ZM 66.2318 38.688C 66.1037 38.688 65.7198 38.976 65.0798 39.552C 64.5038 40.128 64.0238 40.64 63.6398 41.088L 65.6557 40.704C 65.7837 40.704 66.1997 40.64 66.9037 40.512C 67.6717 40.32 68.5678 39.904 69.5918 39.264C 69.3998 39.2 68.4077 39.008 66.6157 38.688L 66.2318 38.688ZM 69.5918 40.416C 70.8718 40.864 71.9917 41.088 72.9517 41.088C 73.5277 41.088 74.0077 40.896 74.3917 40.512C 74.8397 40.128 75.0638 39.648 75.0638 39.072C 71.8637 39.072 70.0398 39.52 69.5918 40.416ZM 78.7117 39.84C 77.8157 39.84 76.9198 39.968 76.0238 40.224C 75.1918 40.416 74.7757 40.8 74.7757 41.376L 74.8717 41.664C 74.9997 41.664 76.1197 41.6 78.2318 41.472C 80.4078 41.28 81.6557 40.736 81.9757 39.84L 79.2878 39.84L 78.7117 39.84ZM 60.2798 46.752C 59.0638 46.752 58.2957 46.944 57.9757 47.328C 57.6557 47.648 57.4958 48.448 57.4958 49.728C 58.2638 49.728 58.9038 49.44 59.4158 48.864C 59.9918 48.224 60.2798 47.52 60.2798 46.752ZM 60.6638 48.096C 60.5358 48.288 60.1838 48.8 59.6078 49.632C 59.0958 50.4 58.8397 51.168 58.8397 51.936C 60.6957 51.936 61.9118 51.68 62.4878 51.168C 62.2958 50.72 61.9758 50.208 61.5278 49.632C 61.0798 48.992 60.7918 48.48 60.6638 48.096ZM 59.5118 53.472C 59.8318 53.664 60.0878 54.048 60.2798 54.624C 60.4718 55.136 60.5998 55.552 60.6638 55.872C 62.1358 55.104 62.8718 53.888 62.8718 52.224C 61.0798 52.224 59.9598 52.64 59.5118 53.472ZM 64.3117 58.848C 65.0797 57.696 65.4637 56.96 65.4637 56.64L 65.3677 56.352L 61.9118 55.872L 61.2397 56.352L 64.3117 58.848ZM 65.3677 59.424C 65.4317 59.552 65.5277 59.68 65.6557 59.808C 65.7837 59.872 65.9117 59.936 66.0397 60C 66.6157 59.872 67.2557 59.584 67.9597 59.136C 68.6637 58.688 69.0157 58.368 69.0157 58.176C 69.0157 57.856 68.8877 57.6 68.6317 57.408C 68.4397 57.152 68.2797 57.024 68.1517 57.024C 67.5757 57.024 66.9678 57.312 66.3278 57.888C 65.6878 58.4 65.3677 58.912 65.3677 59.424ZM 67.7677 61.152C 69.1757 61.472 69.9757 61.696 70.1677 61.824C 70.4877 62.144 70.6797 62.304 70.7437 62.304C 71.7037 62.304 72.5357 62.016 73.2397 61.44C 74.0077 60.8 74.3917 60.032 74.3917 59.136C 71.9597 59.136 70.7437 59.424 70.7437 60C 70.7437 59.808 70.6157 59.552 70.3597 59.232C 70.1677 58.912 70.0077 58.752 69.8797 58.752C 69.7517 58.752 69.3357 59.072 68.6317 59.712C 67.9917 60.288 67.6717 60.672 67.6717 60.864L 67.7677 61.152ZM 74.2957 61.824C 74.6157 62.144 74.8077 62.304 74.8717 62.304C 75.9597 62.304 77.2397 62.176 78.7117 61.92C 80.1837 61.664 81.1117 61.504 81.4958 61.44C 84.1838 60.928 85.9437 60.672 86.7757 60.672L 87.9277 61.152C 88.6958 61.152 89.3997 60.992 90.0397 60.672C 90.6797 60.352 90.9997 59.84 90.9997 59.136C 89.7197 59.136 87.9917 59.392 85.8158 59.904C 85.4958 59.968 84.9517 60.096 84.1837 60.288C 83.4157 60.48 82.6797 60.608 81.9757 60.672C 80.6957 60.672 79.3197 60.736 77.8477 60.864C 76.4397 60.928 75.4477 61.024 74.8717 61.152L 74.2957 61.824Z"/>
<path id="path2_fill" d="M 103.205 53.76C 102.373 52.16 101.829 50.816 101.573 49.728C 101.381 48.64 101.285 47.232 101.285 45.504C 101.285 40.576 102.245 36.288 104.165 32.64C 106.085 28.928 108.773 26.08 112.229 24.096C 115.685 22.112 119.685 21.12 124.229 21.12L 126.341 21.216L 125.093 21.792C 125.285 21.792 126.053 21.696 127.397 21.504C 128.101 21.312 128.773 21.216 129.413 21.216C 133.637 21.216 136.165 21.76 136.997 22.848L 137.093 25.344C 137.093 26.112 136.965 27.2 136.709 28.608C 136.389 29.76 136.229 30.88 136.229 31.968C 133.477 31.968 130.373 30.912 126.917 28.8L 118.661 28.8C 118.085 28.8 117.285 29.312 116.261 30.336C 115.237 31.296 114.245 32.48 113.285 33.888C 112.389 35.296 111.813 36.576 111.557 37.728C 111.493 38.112 111.365 38.88 111.173 40.032C 111.045 41.12 110.757 41.952 110.309 42.528C 110.949 46.304 111.845 49.248 112.997 51.36C 114.213 53.472 116.293 55.456 119.237 57.312L 119.237 57.984C 119.877 57.984 120.709 58.048 121.733 58.176C 122.629 58.368 123.461 58.464 124.229 58.464C 126.533 58.464 128.613 58.304 130.469 57.984C 132.389 57.664 134.181 57.024 135.845 56.064C 135.973 56.576 136.293 57.632 136.805 59.232C 137.381 60.832 137.669 62.08 137.669 62.976C 137.669 64.064 137.029 64.8 135.749 65.184C 134.533 65.504 132.837 65.664 130.661 65.664C 126.757 65.664 123.269 65.536 120.197 65.28C 117.189 64.96 114.245 64.16 111.365 62.88C 108.485 61.536 106.373 59.488 105.029 56.736C 104.901 56.48 104.773 56.096 104.645 55.584C 104.581 55.008 104.453 54.592 104.261 54.336C 104.133 54.016 103.781 53.824 103.205 53.76ZM 103.781 45.984C 104.229 47.712 104.901 49.728 105.797 52.032C 106.757 54.336 107.461 55.488 107.909 55.488L 110.309 53.76L 110.405 53.472C 110.405 52.448 110.085 51.104 109.445 49.44C 108.869 47.712 108.197 46.56 107.429 45.984L 107.909 45.504C 107.845 45.248 107.813 44.832 107.813 44.256C 107.813 41.76 108.197 38.976 108.965 35.904C 109.733 32.832 110.597 31.296 111.557 31.296C 112.197 29.888 112.933 28.832 113.765 28.128C 114.661 27.424 115.557 26.976 116.453 26.784C 117.349 26.528 118.565 26.304 120.101 26.112C 122.725 25.984 124.805 25.504 126.341 24.672C 126.021 24.608 125.605 24.512 125.093 24.384C 124.645 24.256 124.261 24.192 123.941 24.192C 122.277 24.192 120.165 24.544 117.605 25.248C 115.109 25.952 113.093 26.752 111.557 27.648C 110.021 28.544 108.421 30.912 106.757 34.752C 106.373 35.776 105.797 38.016 105.029 41.472C 104.325 44.48 103.909 45.984 103.781 45.984ZM 130.757 24.864C 129.605 25.568 129.029 26.112 129.029 26.496L 132.773 27.648L 132.773 25.152L 130.757 24.864ZM 109.061 56.448C 109.061 57.024 109.509 57.312 110.405 57.312C 110.981 57.312 111.397 57.184 111.653 56.928C 111.909 56.672 112.229 56.192 112.613 55.488C 112.613 55.36 112.485 55.168 112.229 54.912C 111.973 54.656 111.749 54.496 111.557 54.432L 111.269 54.336C 110.885 54.336 110.405 54.656 109.829 55.296C 109.317 55.936 109.061 56.32 109.061 56.448ZM 112.037 59.328C 112.037 59.968 112.677 60.288 113.957 60.288C 114.469 60.288 114.853 60.16 115.109 59.904C 115.429 59.648 115.813 59.168 116.261 58.464C 116.197 58.144 116.069 57.952 115.877 57.888C 115.685 57.824 115.397 57.792 115.013 57.792C 114.373 57.792 113.701 57.92 112.997 58.176C 112.357 58.432 112.037 58.816 112.037 59.328ZM 116.261 61.152C 116.261 61.408 116.453 61.632 116.837 61.824C 117.285 61.952 117.669 62.016 117.989 62.016C 118.181 62.016 118.405 61.952 118.661 61.824C 118.981 61.696 119.173 61.568 119.237 61.44C 119.237 60.928 119.141 60.608 118.949 60.48C 118.821 60.288 118.533 60.192 118.085 60.192C 116.869 60.192 116.261 60.512 116.261 61.152ZM 133.829 60.384C 132.869 60.448 132.069 60.64 131.429 60.96C 130.789 61.28 130.277 61.824 129.893 62.592L 130.757 62.688C 131.717 62.688 132.453 62.528 132.965 62.208C 133.541 61.888 133.829 61.28 133.829 60.384ZM 122.405 60.96C 122.021 60.96 121.605 61.056 121.157 61.248C 120.773 61.44 120.549 61.696 120.485 62.016L 124.421 62.4C 124.357 62.08 124.069 61.76 123.557 61.44C 123.045 61.12 122.661 60.96 122.405 60.96ZM 125.669 61.44C 125.669 61.76 125.733 62.048 125.861 62.304C 126.053 62.496 126.277 62.592 126.533 62.592C 126.917 62.592 127.301 62.496 127.685 62.304C 128.133 62.048 128.453 61.76 128.645 61.44L 125.669 61.44Z"/>
<path id="path3_fill" d="M 165.441 43.776C 167.425 46.656 169.921 50.016 172.929 53.856C 176.577 58.72 178.625 61.472 179.073 62.112C 179.329 62.432 179.489 62.752 179.553 63.072C 179.617 63.328 179.649 63.616 179.649 63.936C 179.649 64.768 179.457 65.184 179.073 65.184L 171.297 65.184C 171.169 64.608 170.433 64.32 169.089 64.32C 166.721 61.888 164.801 59.776 163.329 57.984C 161.921 56.192 160.833 54.048 160.065 51.552L 156.513 48L 155.841 48L 155.937 55.104C 155.937 57.344 155.809 59.68 155.553 62.112C 155.297 64.544 154.849 65.76 154.209 65.76L 147.681 65.76C 147.617 65.632 147.521 65.44 147.393 65.184C 147.265 64.928 147.169 64.704 147.105 64.512C 146.657 58.944 146.433 50.368 146.433 38.784L 146.433 24.864C 146.497 24.736 146.625 24.512 146.817 24.192C 147.009 23.872 147.105 23.584 147.105 23.328C 147.105 23.136 146.785 22.624 146.145 21.792C 145.569 20.96 145.281 20.512 145.281 20.448C 145.281 20.32 145.345 20.096 145.473 19.776C 145.601 19.392 145.761 19.104 145.953 18.912C 145.953 16.288 146.081 12.48 146.337 7.488C 146.657 2.496 146.913 0 147.105 0L 154.785 0L 155.361 0.575998C 155.297 1.216 155.265 2.176 155.265 3.456C 155.265 5.568 155.361 7.872 155.553 10.368C 155.745 12.864 155.873 14.496 155.937 15.264C 156.385 19.872 156.609 23.776 156.609 26.976L 156.513 31.68C 156.513 34.048 156.737 36.32 157.185 38.496C 159.233 36.64 161.697 33.984 164.577 30.528C 167.457 27.008 169.921 24.352 171.969 22.56C 172.225 22.432 172.737 22.304 173.505 22.176C 174.337 21.984 175.009 21.888 175.521 21.888C 176.865 21.888 177.889 22.016 178.593 22.272C 179.297 22.528 179.649 23.136 179.649 24.096C 179.649 24.672 179.585 25.088 179.457 25.344C 179.329 25.6 179.009 26.048 178.497 26.688C 173.633 32.064 169.281 37.76 165.441 43.776ZM 150.753 2.976C 150.113 2.976 149.697 3.36 149.505 4.128C 149.377 4.896 149.313 5.6 149.313 6.24C 149.313 6.816 149.313 7.168 149.313 7.296C 151.425 7.296 152.481 6.432 152.481 4.704C 152.481 4 152.385 3.552 152.193 3.36C 152.001 3.104 151.521 2.976 150.753 2.976ZM 153.057 16.224C 153.057 15.264 152.929 14.624 152.673 14.304C 152.481 13.92 152.385 13.664 152.385 13.536C 152.449 13.472 152.545 13.312 152.673 13.056C 152.801 12.8 152.897 12.576 152.961 12.384C 152.961 10.656 152.769 8.896 152.385 7.104L 149.409 8.352L 149.409 19.104C 151.841 19.104 153.057 18.144 153.057 16.224ZM 174.369 24.768C 173.473 24.768 173.025 25.088 173.025 25.728C 173.025 25.92 173.121 26.144 173.313 26.4C 173.569 26.592 173.793 26.688 173.985 26.688C 174.433 26.688 174.945 26.272 175.521 25.44C 175.393 25.12 175.233 24.928 175.041 24.864C 174.913 24.8 174.689 24.768 174.369 24.768ZM 149.409 27.168C 150.305 26.656 150.753 26.08 150.753 25.44L 149.409 25.44L 149.409 27.168ZM 151.905 28.416L 152.961 28.992L 152.961 27.84L 151.905 28.416ZM 171.969 27.84C 171.905 27.84 171.297 28.032 170.145 28.416L 172.641 28.416C 172.577 28.288 172.481 28.192 172.353 28.128C 172.225 28 172.097 27.904 171.969 27.84ZM 172.545 62.784C 173.057 62.784 173.825 62.56 174.849 62.112C 173.953 62.112 173.505 61.728 173.505 60.96C 173.505 60.832 173.569 60.64 173.697 60.384C 173.569 60.128 173.153 59.36 172.449 58.08C 171.809 56.8 171.009 55.68 170.049 54.72C 169.089 53.76 168.129 53.28 167.169 53.28C 167.297 53.216 167.425 53.152 167.553 53.088C 167.745 52.96 167.841 52.8 167.841 52.608C 167.841 51.84 167.329 51.264 166.305 50.88C 165.345 50.432 164.449 50.144 163.617 50.016L 166.113 50.016C 165.921 49.632 165.697 49.216 165.441 48.768C 165.185 48.32 164.961 48.032 164.769 47.904C 164.641 47.904 164.417 48 164.097 48.192C 163.777 48.384 163.553 48.48 163.425 48.48C 163.425 46.88 163.233 45.792 162.849 45.216C 162.529 44.576 161.665 43.968 160.257 43.392L 160.449 43.392C 161.281 43.392 162.465 42.464 164.001 40.608C 165.537 38.752 167.041 36.672 168.513 34.368C 169.985 32.064 170.913 30.496 171.297 29.664L 169.569 29.664C 167.841 31.968 166.401 33.76 165.249 35.04C 164.097 36.256 162.785 37.216 161.313 37.92L 161.889 38.496C 161.377 38.752 160.833 39.168 160.257 39.744C 159.873 40.128 159.489 40.416 159.105 40.608C 158.721 40.8 158.209 40.896 157.569 40.896C 157.121 40.768 156.449 40.512 155.553 40.128C 154.657 39.68 154.017 39.328 153.633 39.072C 153.633 39.072 153.409 39.296 152.961 39.744C 152.961 40.064 153.569 40.864 154.785 42.144C 156.001 43.424 157.249 44.704 158.529 45.984C 160.769 48.096 161.889 49.248 161.889 49.44C 161.889 49.952 162.433 50.912 163.521 52.32C 164.673 53.728 165.377 54.592 165.633 54.912C 167.361 57.024 168.289 58.272 168.417 58.656C 168.673 59.616 169.217 60.544 170.049 61.44C 170.881 62.336 171.713 62.784 172.545 62.784ZM 150.081 32.544L 149.409 32.544L 149.409 33.12L 150.081 32.544ZM 153.825 33.696C 152.865 33.696 152.385 34.112 152.385 34.944C 152.833 34.88 153.185 34.752 153.441 34.56C 153.697 34.304 153.825 34.016 153.825 33.696ZM 150.657 37.92C 150.081 37.92 149.665 38.112 149.409 38.496C 149.153 38.88 149.025 39.328 149.025 39.84C 149.985 39.84 150.529 39.2 150.657 37.92ZM 160.065 43.296L 160.257 43.392L 160.065 43.296ZM 152.289 46.176C 152.289 46.048 152.257 45.92 152.193 45.792C 152.129 45.664 152.033 45.6 151.905 45.6C 151.585 45.6 151.425 45.792 151.425 46.176C 151.425 46.56 151.585 46.752 151.905 46.752C 152.033 46.752 152.129 46.688 152.193 46.56C 152.257 46.432 152.289 46.304 152.289 46.176ZM 150.369 56.352C 150.561 56.352 150.881 55.808 151.329 54.72C 151.777 53.632 152.001 52.928 152.001 52.608C 151.361 52.608 150.753 52.768 150.177 53.088C 149.665 53.408 149.409 53.856 149.409 54.432C 149.409 55.712 149.729 56.352 150.369 56.352ZM 151.137 63.744C 151.649 63.744 152.065 63.616 152.385 63.36C 152.769 63.04 152.961 62.624 152.961 62.112C 152.961 62.048 152.865 61.856 152.673 61.536C 152.545 61.216 152.449 61.024 152.385 60.96C 151.553 61.536 151.137 62.464 151.137 63.744Z"/>
<path id="path4_fill" d="M 195.045 1.152C 195.109 1.024 195.781 0.895998 197.061 0.768002C 198.341 0.575998 199.429 0.48 200.325 0.48C 200.837 0.48 201.445 0.639999 202.149 0.959999C 202.917 1.216 203.301 1.472 203.301 1.728L 203.301 8.832C 203.301 9.664 202.725 10.08 201.573 10.08C 200.037 10.08 198.341 9.952 196.485 9.696C 194.693 9.44 193.797 8.96 193.797 8.256L 193.797 2.208L 195.045 1.152ZM 195.909 3.456C 195.909 4.096 196.037 4.768 196.293 5.472C 196.549 6.112 196.965 6.432 197.541 6.432C 198.693 6.432 199.493 6.336 199.941 6.144C 200.453 5.952 200.709 5.472 200.709 4.704C 200.709 4.384 200.581 3.968 200.325 3.456C 200.133 3.52 199.877 3.648 199.557 3.84C 199.301 4.032 198.981 4.128 198.597 4.128L 199.269 3.456L 195.909 3.456ZM 196.197 64.416C 196.069 63.968 195.781 63.424 195.333 62.784C 194.885 62.144 194.597 61.536 194.469 60.96C 193.573 57.248 192.997 53.376 192.741 49.344C 192.485 45.248 192.357 40.416 192.357 34.848L 192.357 31.776C 192.357 27.744 192.709 24.672 193.413 22.56C 194.117 20.448 195.653 19.392 198.021 19.392C 200.389 19.392 201.989 20.416 202.821 22.464C 203.717 24.448 204.165 27.04 204.165 30.24C 204.165 33.76 203.909 37.632 203.397 41.856C 202.949 45.12 202.725 48 202.725 50.496C 202.725 52.096 202.853 54.432 203.109 57.504C 203.173 58.272 203.237 59.2 203.301 60.288C 203.365 61.376 203.397 62.656 203.397 64.128C 203.397 65.152 202.981 65.664 202.149 65.664C 201.381 65.536 200.389 65.344 199.173 65.088C 198.021 64.832 197.029 64.608 196.197 64.416ZM 197.157 25.44C 199.717 25.44 200.997 25.056 200.997 24.288C 200.997 23.52 200.901 23.008 200.709 22.752C 200.581 22.496 200.293 22.368 199.845 22.368C 199.717 22.368 199.429 22.496 198.981 22.752C 198.533 22.944 198.213 23.04 198.021 23.04C 197.893 23.04 197.733 22.944 197.541 22.752C 197.349 22.496 197.093 22.368 196.773 22.368C 196.325 22.368 195.973 22.464 195.717 22.656C 195.525 22.784 195.301 23.104 195.045 23.616C 195.557 24.128 196.037 24.384 196.485 24.384L 196.773 24.288L 196.197 25.44L 197.157 25.44ZM 194.949 28.224C 194.949 28.352 195.013 28.512 195.141 28.704C 195.333 28.832 195.493 28.896 195.621 28.896C 196.197 28.896 196.901 28.48 197.733 27.648C 198.565 26.752 199.077 26.208 199.269 26.016L 198.885 26.016C 198.373 26.016 197.605 26.176 196.581 26.496C 195.557 26.816 195.045 27.36 195.045 28.128L 194.949 28.224ZM 201.189 26.208C 199.525 26.208 197.861 27.68 196.197 30.624C 197.093 30.304 198.117 30.144 199.269 30.144C 199.845 30.144 200.261 30.08 200.517 29.952C 200.773 29.824 200.933 29.504 200.997 28.992C 201.125 28.416 201.189 27.488 201.189 26.208ZM 195.045 34.176C 195.045 34.304 195.109 34.464 195.237 34.656C 195.429 34.784 195.557 34.848 195.621 34.848C 197.029 34.08 198.405 32.928 199.749 31.392L 198.885 31.296C 197.861 31.296 196.965 31.552 196.197 32.064C 195.429 32.512 195.045 33.216 195.045 34.176ZM 200.997 31.968C 199.269 32.864 198.085 34.016 197.445 35.424L 198.309 35.52C 198.757 35.52 199.301 35.488 199.941 35.424C 200.645 35.296 200.997 35.104 200.997 34.848L 200.997 31.968ZM 197.445 40.896C 200.325 40.896 201.765 39.488 201.765 36.672L 200.997 36.672L 197.445 40.224L 197.445 40.896ZM 197.445 37.152C 196.165 37.152 195.525 37.696 195.525 38.784L 195.621 39.744L 198.021 37.248L 197.445 37.152ZM 198.693 41.856C 197.861 41.856 197.061 42.112 196.293 42.624C 195.525 43.136 195.141 43.776 195.141 44.544C 195.845 44.544 196.613 44.288 197.445 43.776C 198.277 43.2 198.693 42.56 198.693 41.856ZM 200.325 42.528C 200.069 42.656 199.365 43.232 198.213 44.256C 197.125 45.28 196.261 46.112 195.621 46.752L 200.325 46.752C 200.709 46.752 200.933 46.368 200.997 45.6C 201.125 44.768 201.189 43.744 201.189 42.528L 200.325 42.528ZM 195.621 49.056C 195.621 49.888 195.813 50.304 196.197 50.304L 199.269 47.904L 199.269 47.328C 196.837 47.648 195.621 48.224 195.621 49.056ZM 196.197 52.8C 197.797 52.8 198.885 52.48 199.461 51.84C 200.101 51.2 200.421 50.08 200.421 48.48L 199.749 48.48L 196.197 52.032L 196.197 52.8ZM 196.197 55.008C 196.197 55.2 196.261 55.424 196.389 55.68C 196.517 55.872 196.645 56.032 196.773 56.16L 199.269 53.856L 198.309 53.76C 197.093 53.76 196.389 54.176 196.197 55.008ZM 196.197 60.384C 196.453 61.088 196.965 61.536 197.733 61.728C 198.565 61.856 199.525 61.92 200.613 61.92C 200.613 61.344 200.421 60.864 200.037 60.48C 199.717 60.032 199.557 59.776 199.557 59.712C 199.557 59.712 199.749 59.616 200.133 59.424C 200.517 59.232 200.709 57.76 200.709 55.008L 199.269 55.008C 199.141 55.008 198.661 55.52 197.829 56.544C 197.061 57.568 196.677 58.208 196.677 58.464L 196.677 58.56L 199.269 58.56L 196.197 60.384Z"/>
<path id="path5_fill" d="M 253.04 22.176C 253.36 22.176 253.84 28.128 254.48 40.032C 255.12 51.872 255.44 59.744 255.44 63.648C 255.12 64.8 254.352 65.536 253.136 65.856C 251.92 66.176 250.32 66.336 248.336 66.336C 246.992 66.336 246.096 66.112 245.648 65.664C 245.2 65.216 244.976 64.352 244.976 63.072L 245.072 60.288C 244.816 60.48 244.176 61.184 243.152 62.4C 242.128 63.552 240.656 64.544 238.736 65.376C 236.816 66.144 234.192 66.528 230.864 66.528C 226.192 66.528 222.608 64.576 220.112 60.672C 217.616 56.704 216.176 51.968 215.792 46.464L 215.12 39.36L 215.12 38.112C 215.888 34.272 216.272 32.128 216.272 31.68C 216.272 30.912 216.176 29.76 215.984 28.224L 215.792 25.152L 215.792 24.192C 215.792 23.232 215.952 22.272 216.272 21.312C 216.656 20.288 217.264 19.776 218.096 19.776L 224.048 20.448C 224.496 20.448 224.816 21.12 225.008 22.464C 225.264 23.744 225.392 24.992 225.392 26.208C 225.392 27.616 225.328 29.024 225.2 30.432L 225.776 31.008L 225.68 41.952C 225.68 45.792 225.936 48.768 226.448 50.88C 226.96 52.992 227.984 54.592 229.52 55.68C 231.056 56.704 233.392 57.216 236.528 57.216C 238.96 57.216 240.912 56.992 242.384 56.544C 243.856 56.096 245.04 55.104 245.936 53.568L 246.032 50.112C 246.032 47.808 245.904 44.352 245.648 39.744C 245.328 35.904 245.168 32.416 245.168 29.28C 245.168 28.064 245.168 26.816 245.168 25.536C 245.232 24.192 245.296 23.264 245.36 22.752L 246.416 22.176L 253.04 22.176ZM 218.672 31.776C 218.672 32.416 218.864 32.768 219.248 32.832C 219.44 32.256 219.76 31.744 220.208 31.296C 220.72 30.784 221.008 30.496 221.072 30.432C 221.712 29.792 222.16 29.28 222.416 28.896C 222.736 28.448 222.896 27.904 222.896 27.264C 222.896 25.984 222.736 25.344 222.416 25.344C 222.096 25.28 221.936 25.184 221.936 25.056C 221.936 24.8 222.064 24.32 222.32 23.616C 222.32 22.976 221.104 22.656 218.672 22.656L 218.672 26.304L 219.152 28.512C 219.152 28.768 219.056 29.184 218.864 29.76C 218.736 30.272 218.672 30.784 218.672 31.296L 218.672 31.776ZM 247.76 28.992C 248.848 29.248 249.392 29.504 249.392 29.76C 249.392 29.888 249.104 30.24 248.528 30.816C 248.016 31.392 247.76 31.968 247.76 32.544C 247.76 32.672 247.792 32.864 247.856 33.12C 247.984 33.312 248.144 33.408 248.336 33.408C 249.744 32.576 250.576 31.808 250.832 31.104C 251.152 30.336 251.312 28.864 251.312 26.688C 251.312 25.984 251.216 25.44 251.024 25.056C 250.832 24.672 250.416 24.48 249.776 24.48L 248.336 24.576L 247.76 28.992ZM 219.92 33.408C 221.264 33.408 222.128 33.312 222.512 33.12C 222.96 32.928 223.184 32.352 223.184 31.392C 223.184 31.136 223.056 30.624 222.8 29.856C 221.072 31.328 220.112 32.512 219.92 33.408ZM 249.488 36.288C 249.168 36.288 248.784 36.416 248.336 36.672C 247.888 36.928 247.664 37.12 247.664 37.248C 247.664 37.568 247.76 37.92 247.952 38.304C 248.144 38.688 248.368 38.88 248.624 38.88C 249.392 38.88 250.128 38.176 250.832 36.768C 251.536 35.36 251.888 34.24 251.888 33.408C 251.888 33.216 251.792 32.992 251.6 32.736C 251.472 32.48 251.344 32.352 251.216 32.352L 248.336 35.232L 248.24 35.424C 248.24 35.68 248.368 35.904 248.624 36.096C 248.88 36.224 249.168 36.288 249.488 36.288ZM 222.32 34.08C 221.104 34.08 220.208 34.144 219.632 34.272C 219.12 34.4 218.736 34.752 218.48 35.328C 218.224 35.904 218.096 36.832 218.096 38.112C 219.12 37.408 220.08 36.672 220.976 35.904C 221.872 35.072 222.32 34.464 222.32 34.08ZM 223.472 35.712C 223.472 35.584 223.44 35.52 223.376 35.52C 223.056 35.52 222.032 36.192 220.304 37.536C 219.472 38.24 218.928 38.656 218.672 38.784L 218.672 39.36L 222.032 39.84C 222.224 39.776 222.448 39.68 222.704 39.552C 223.024 39.36 223.28 39.264 223.472 39.264L 223.472 35.712ZM 248.816 41.376C 248.816 41.504 248.912 41.792 249.104 42.24C 249.36 42.624 249.712 42.816 250.16 42.816C 249.264 42.816 248.72 43.232 248.528 44.064C 248.336 44.896 248.24 45.952 248.24 47.232C 249.2 47.232 250 46.848 250.64 46.08C 251.344 45.312 251.696 44.448 251.696 43.488L 250.64 43.488C 251.152 43.104 251.44 42.464 251.504 41.568C 251.568 40.608 251.6 39.488 251.6 38.208C 250.768 38.208 250.096 38.528 249.584 39.168C 249.072 39.808 248.816 40.544 248.816 41.376ZM 217.904 41.088C 217.904 43.456 218.16 44.64 218.672 44.64L 221.744 41.76L 221.744 41.088L 217.904 41.088ZM 223.472 41.76C 221.808 43.232 220.016 45.184 218.096 47.616L 223.472 47.616C 223.536 47.616 223.632 47.424 223.76 47.04C 223.952 46.592 224.048 46.208 224.048 45.888C 224.048 45.12 223.952 44.416 223.76 43.776C 223.696 43.52 223.632 43.232 223.568 42.912C 223.504 42.592 223.472 42.208 223.472 41.76ZM 249.392 49.536C 250.544 49.536 251.28 49.408 251.6 49.152C 251.92 48.832 252.08 48.064 252.08 46.848C 251.44 46.848 250.832 47.136 250.256 47.712C 249.68 48.224 249.392 48.832 249.392 49.536ZM 218.672 50.496C 218.672 51.584 218.736 52.384 218.864 52.896C 219.056 53.408 219.536 53.664 220.304 53.664C 221.328 53.664 222.288 53.472 223.184 53.088C 224.144 52.64 224.624 52 224.624 51.168C 224.624 50.784 224.56 50.496 224.432 50.304C 224.304 50.112 223.984 50.016 223.472 50.016C 223.28 50.08 222.896 50.464 222.32 51.168C 221.744 51.872 221.328 52.48 221.072 52.992L 219.92 52.416C 221.264 50.88 222.032 49.696 222.224 48.864C 221.776 48.928 221.2 48.96 220.496 48.96C 219.856 48.96 219.376 49.056 219.056 49.248C 218.8 49.44 218.672 49.856 218.672 50.496ZM 249.488 50.592C 249.04 50.592 248.816 50.976 248.816 51.744L 248.816 52.416C 248.816 53.12 249.04 53.504 249.488 53.568C 250.704 52.352 251.312 51.68 251.312 51.552C 251.312 51.36 251.088 51.168 250.64 50.976C 250.192 50.72 249.808 50.592 249.488 50.592ZM 251.984 56.544C 252.304 56.544 252.464 56.128 252.464 55.296C 252.4 54.976 252.272 54.592 252.08 54.144C 251.888 53.696 251.76 53.472 251.696 53.472C 251.184 53.472 250.704 53.696 250.256 54.144C 249.808 54.592 249.552 54.816 249.488 54.816C 249.488 55.072 249.552 55.328 249.68 55.584C 249.808 55.776 249.968 55.904 250.16 55.968C 249.584 56.864 248.88 57.6 248.048 58.176C 247.28 58.752 246.736 59.04 246.416 59.04C 246.416 59.424 246.512 59.68 246.704 59.808C 246.896 59.936 247.024 60.032 247.088 60.096L 250.64 57.696L 250.64 56.16C 250.896 56.16 251.152 56.224 251.408 56.352C 251.664 56.48 251.856 56.544 251.984 56.544ZM 222.8 60.672C 224.336 61.12 225.328 61.504 225.776 61.824L 229.328 60.096L 229.328 59.52L 228.176 59.52L 228.176 58.272L 222.8 58.272L 222.8 57.6L 224.048 57.696C 225.584 57.696 226.352 57.312 226.352 56.544C 226.352 56.352 226.288 56.128 226.16 55.872C 226.032 55.616 225.904 55.424 225.776 55.296L 224.048 56.544C 224.048 56.16 224.144 55.68 224.336 55.104C 224.528 54.528 224.624 54.016 224.624 53.568C 224.432 53.696 223.856 53.888 222.896 54.144C 221.936 54.336 221.168 54.56 220.592 54.816C 220.08 55.072 219.824 55.456 219.824 55.968L 219.92 56.544L 222.8 60.672ZM 249.968 61.344C 251.632 61.344 252.464 60.864 252.464 59.904C 252.464 59.328 252.4 58.912 252.272 58.656C 252.208 58.336 252.016 58.176 251.696 58.176C 250.992 58.176 250.256 58.528 249.488 59.232C 248.784 59.936 248.4 60.608 248.336 61.248L 249.968 61.344ZM 244.208 59.52L 242.96 59.424C 242.256 59.424 241.712 59.456 241.328 59.52C 240.944 59.584 240.496 59.776 239.984 60.096L 231.152 60.096C 230.896 60.096 230.256 60.416 229.232 61.056C 228.272 61.632 227.536 62.112 227.024 62.496C 227.984 63.264 229.84 63.648 232.592 63.648C 233.168 63.648 233.648 63.584 234.032 63.456C 234.416 63.328 234.832 63.008 235.28 62.496L 235.28 63.84C 237.136 63.84 238.48 63.648 239.312 63.264C 240.208 62.88 241.04 62.016 241.808 60.672L 242.48 61.248L 244.208 59.52ZM 251.888 62.976L 251.888 62.496L 247.856 63.168L 248.72 64.032L 251.888 62.976Z"/>
<path id="path6_fill" d="M 303.372 52.704C 303.372 52.768 303.436 52.896 303.564 53.088C 303.756 53.216 303.916 53.28 304.044 53.28C 303.404 53.728 302.956 54.368 302.7 55.2C 302.444 56.032 302.284 56.544 302.22 56.736C 301.388 58.72 300.396 60.224 299.244 61.248C 298.156 62.272 296.972 63.008 295.692 63.456C 294.412 63.84 292.588 64.256 290.22 64.704C 289.196 64.832 288.46 64.96 288.012 65.088L 286.284 65.184L 281.964 64.608C 281.644 64.608 280.396 64.224 278.22 63.456C 275.66 62.56 274.188 62.112 273.804 62.112C 273.484 62.112 273.164 62.24 272.844 62.496C 272.524 62.688 272.236 62.784 271.98 62.784C 270.764 62.784 270.156 60.544 270.156 56.064C 270.156 54.208 270.476 53.28 271.116 53.28C 271.564 53.408 272.14 53.728 272.844 54.24C 273.548 54.752 274.06 55.008 274.38 55.008L 285.612 57.504C 286.38 57.504 287.34 57.248 288.492 56.736C 289.644 56.16 290.636 55.456 291.468 54.624C 292.364 53.792 292.812 52.96 292.812 52.128C 292.812 51.424 292.3 50.56 291.276 49.536C 290.316 48.512 289.228 47.584 288.012 46.752C 286.796 45.92 286.06 45.504 285.804 45.504C 285.228 45.504 284.652 45.408 284.076 45.216C 283.564 44.96 283.084 44.704 282.636 44.448C 281.612 43.936 280.844 43.68 280.332 43.68C 278.348 43.68 276.492 42.976 274.764 41.568C 273.036 40.16 271.628 38.4 270.54 36.288C 269.516 34.112 269.004 32 269.004 29.952C 269.004 25.6 271.244 22.784 275.724 21.504C 280.268 20.16 284.78 19.488 289.26 19.488C 296.3 19.488 299.82 20.32 299.82 21.984L 299.82 28.32C 299.82 28.896 299.244 29.184 298.092 29.184C 295.276 28.032 293.132 27.232 291.66 26.784C 290.188 26.272 288.62 26.016 286.956 26.016C 285.036 26.016 283.532 26.752 282.444 28.224C 281.356 29.632 280.812 31.296 280.812 33.216C 280.812 33.472 281.004 33.92 281.388 34.56C 281.836 35.136 282.284 35.456 282.732 35.52L 292.812 37.344C 294.476 37.664 296.172 38.56 297.9 40.032C 299.692 41.504 301.164 43.2 302.316 45.12C 303.532 47.04 304.14 48.768 304.14 50.304C 304.076 50.56 303.916 50.944 303.66 51.456C 303.468 51.968 303.372 52.384 303.372 52.704ZM 284.46 23.04L 293.868 23.04C 292.524 22.784 291.212 22.624 289.932 22.56C 288.716 22.496 287.628 22.464 286.668 22.464C 285.708 22.464 284.972 22.464 284.46 22.464L 284.46 23.04ZM 271.404 30.528C 271.404 31.744 271.756 33.28 272.46 35.136C 273.228 36.992 274.156 37.92 275.244 37.92C 275.436 37.92 275.948 37.568 276.78 36.864C 277.676 36.16 278.252 35.712 278.508 35.52C 278.508 34.496 278.38 33.824 278.124 33.504C 277.932 33.12 277.452 32.8 276.684 32.544C 277.452 32.544 277.996 32.16 278.316 31.392C 278.7 30.56 278.956 29.792 279.084 29.088C 278.828 28.896 278.316 28.736 277.548 28.608C 276.78 28.48 276.396 28.352 276.396 28.224C 276.396 28.16 277.068 27.776 278.412 27.072C 279.82 26.368 280.652 25.6 280.908 24.768C 282.508 24.768 283.308 24.512 283.308 24C 283.308 23.36 282.86 23.04 281.964 23.04C 280.812 23.04 279.372 23.36 277.644 24C 275.98 24.64 274.508 25.536 273.228 26.688C 272.012 27.776 271.404 29.056 271.404 30.528ZM 295.02 23.04C 294.956 23.104 294.86 23.2 294.732 23.328C 294.604 23.456 294.54 23.584 294.54 23.712C 294.796 24.032 295.116 24.32 295.5 24.576C 295.948 24.768 296.396 24.864 296.844 24.864L 297.42 24.768C 297.42 24.256 297.164 23.84 296.652 23.52C 296.14 23.2 295.596 23.04 295.02 23.04ZM 292.14 46.176C 292.78 46.176 293.74 45.888 295.02 45.312C 296.3 44.736 297.132 44.16 297.516 43.584C 297.516 42.304 296.364 41.376 294.06 40.8C 291.82 40.224 288.908 39.744 285.324 39.36C 283.852 39.232 282.988 39.136 282.732 39.072C 282.348 38.944 281.676 38.624 280.716 38.112C 279.756 37.536 279.212 37.248 279.084 37.248C 278.06 37.248 277.068 37.856 276.108 39.072C 276.492 39.904 277.164 40.32 278.124 40.32C 278.508 40.32 279.02 40.224 279.66 40.032C 280.364 39.776 280.972 39.648 281.484 39.648C 281.42 39.712 281.164 39.84 280.716 40.032C 280.268 40.16 279.916 40.448 279.66 40.896C 279.98 41.408 281.1 41.856 283.02 42.24C 284.94 42.624 286.38 42.816 287.34 42.816L 287.34 43.776C 287.916 43.84 288.876 44.32 290.22 45.216C 291.372 45.856 292.012 46.176 292.14 46.176ZM 300.108 47.136C 300.108 45.728 299.724 45.024 298.956 45.024C 298.316 45.024 297.452 45.44 296.364 46.272C 295.276 47.104 294.668 47.68 294.54 48C 295.18 48 296.012 47.872 297.036 47.616C 297.996 47.296 299.02 47.136 300.108 47.136ZM 301.644 49.152C 301.644 48.768 301.548 48.48 301.356 48.288C 301.228 48.096 300.876 48 300.3 48L 300.204 48C 300.012 48 299.308 48.512 298.092 49.536C 296.94 50.56 296.364 51.2 296.364 51.456L 296.364 52.32C 298.028 52.32 299.308 52.192 300.204 51.936C 301.164 51.616 301.644 50.848 301.644 49.632L 301.644 49.152ZM 298.092 58.08C 298.86 58.08 299.436 57.696 299.82 56.928C 300.268 56.16 300.492 55.36 300.492 54.528C 300.492 53.952 300.428 53.536 300.3 53.28L 294.54 55.008C 294.22 55.328 293.964 55.776 293.772 56.352C 293.644 56.928 293.484 57.312 293.292 57.504L 286.188 60.288L 286.188 60.672C 286.188 61.696 287.404 62.208 289.836 62.208C 290.796 62.208 291.404 62.112 291.66 61.92C 291.98 61.728 292.236 61.408 292.428 60.96C 292.556 60.256 293.036 59.68 293.868 59.232C 293.868 59.744 293.932 60.064 294.06 60.192C 294.252 60.32 294.572 60.384 295.02 60.384L 295.596 60.384C 296.364 60.384 296.972 60.192 297.42 59.808C 297.228 59.488 296.908 59.232 296.46 59.04C 296.076 58.784 295.82 58.624 295.692 58.56L 296.844 57.504C 296.972 57.76 297.132 57.92 297.324 57.984C 297.58 58.048 297.836 58.08 298.092 58.08ZM 284.748 62.688C 284.876 62.688 285.036 62.656 285.228 62.592C 285.484 62.464 285.612 62.304 285.612 62.112C 285.292 61.984 285.004 61.632 284.748 61.056C 284.556 60.48 284.428 60.064 284.364 59.808L 278.508 59.808C 278.124 58.912 277.42 58.4 276.396 58.272C 275.436 58.08 274.124 57.984 272.46 57.984C 272.46 59.584 272.876 60.384 273.708 60.384C 274.412 60.384 274.828 60.192 274.956 59.808C 275.276 60.512 276.716 61.184 279.276 61.824C 281.836 62.4 283.66 62.688 284.748 62.688Z"/>
<path id="path7_fill" d="M 313.837 63.36C 313.837 61.376 313.965 59.584 314.221 57.984C 314.477 56.384 315.117 55.584 316.141 55.584C 316.909 55.584 318.125 55.808 319.789 56.256C 321.453 56.64 322.285 57.024 322.285 57.408L 322.285 65.184L 315.085 65.184L 313.933 64.512L 313.837 63.36ZM 317.485 60.384C 317.485 61.088 317.293 61.536 316.909 61.728C 316.973 61.792 317.293 61.824 317.869 61.824C 318.829 61.824 319.309 61.088 319.309 59.616L 319.213 59.328L 316.909 58.656L 316.813 58.944C 316.813 59.136 316.909 59.36 317.101 59.616C 317.357 59.872 317.485 60.128 317.485 60.384Z"/>
</defs>
</svg>
