<svg width="56" height="56" viewBox="0 0 56 56" version="1.1" xmlns="http://www.w3.org/2000/svg" xmlns:xlink="http://www.w3.org/1999/xlink">
<title>ic_portfolio</title>
<desc>Created using Figma</desc>
<g id="Canvas" transform="translate(-4210 -83)">
<g id="ic_portfolio">
<g id="Vector">
<use xlink:href="#path0_stroke" transform="translate(4212 99)" fill="#45E5A5"/>
</g>
<g id="Vector">
<use xlink:href="#path0_stroke" transform="matrix(1 0 0 -1 4212 137)" fill="#45E5A5"/>
</g>
<g id="Vector">
<use xlink:href="#path0_stroke" transform="matrix(-1 0 0 -1 4264 137)" fill="#45E5A5"/>
</g>
<g id="Vector">
<use xlink:href="#path0_stroke" transform="matrix(-1 0 0 1 4264 99)" fill="#45E5A5"/>
</g>
<g id="Vector">
<use xlink:href="#path1_stroke" transform="matrix(0.999728 0.0233039 -0.0202698 0.999795 4228.18 85)" fill="#45E5A5"/>
</g>
</g>
</g>
<defs>
<path id="path0_stroke" d="M 22 16L 22 18C 23.1046 18 24 17.1046 24 16L 22 16ZM 0.0379272 16L -1.96207 16C -1.96207 17.1046 -1.06664 18 0.0379272 18L 0.0379272 16ZM 22 0L 24 0C 24 -1.10457 23.1046 -2 22 -2L 22 0ZM 22 14C 16.7997 14 8.92734 14 0.0379272 14L 0.0379272 18C 8.92734 18 16.7997 18 22 18L 22 14ZM 2.03793 16C 2.03769 13.7164 1.97256 11.6112 2.01302 9.74075C 2.05151 7.88241 2.16678 6.42818 2.54423 5.18781C 2.87983 3.99392 3.2086 3.40123 4.04279 2.87818C 4.74788 2.39101 5.90254 2 7.88153 2L 7.88153 -2C 5.41599 -2 3.36795 -1.51747 1.769 -0.412697C 0.299175 0.65619 -0.777388 2.37382 -1.29156 4.05348C -1.76388 5.68665 -1.94281 7.6692 -1.98608 9.6557C -2.02739 11.6301 -1.96184 13.7778 -1.96207 16L 2.03793 16ZM 24 16L 24 0L 20 0L 20 16L 24 16ZM 7.88153 2L 22 2L 22 -2L 7.88153 -2L 7.88153 2Z"/>
<path id="path1_stroke" d="M 10.1825 0.0829741L 10.2327 2.08234L 10.1825 0.0829741ZM 21.9996 9.46842C 21.9529 6.98628 21.9407 5.04753 21.7883 3.57681C 21.6358 2.12885 21.3058 0.611641 20.1798 -0.479953C 19.05 -1.57522 17.5212 -1.85338 16.0606 -1.95059C 14.5819 -2.04638 12.6329 -1.97912 10.1323 -1.9164L 10.2327 2.08234C 12.7547 2.01902 14.5206 1.95316 15.795 2.04059C 17.0876 2.12661 17.3502 2.348 17.3956 2.39204C 17.4448 2.43975 17.674 2.7016 17.8103 3.99584C 17.9468 5.26733 17.9532 7.03393 18.0004 9.54371L 21.9996 9.46842ZM 10.1323 -1.9164C 7.57431 -1.85165 5.46435 -1.69612 3.86327 -1.37285C 2.21022 -1.03464 0.727657 -0.451225 -0.347102 0.695581C -1.44781 1.87008 -1.85413 3.34688 -1.9651 4.88509C -2.06362 6.33406 -1.91793 8.15453 -1.66579 10.2403L 2.30522 9.75965C 2.0614 7.74839 1.93632 6.31219 2.02453 5.17291C 2.10028 4.12287 2.33819 3.67982 2.57152 3.43084C 2.8308 3.15417 3.3721 2.8105 4.66504 2.54597C 6.00995 2.2665 7.76811 2.14365 10.2327 2.08234L 10.1323 -1.9164Z"/>
</defs>
</svg>
